<svg width="24" height="24" viewBox="0 0 24 24" fill="none" xmlns="http://www.w3.org/2000/svg">
<path d="M20 12.048C20.0003 10.5191 19.5625 9.0221 18.7385 7.73429C17.9144 6.44647 16.7385 5.42177 15.3501 4.78151C13.9617 4.14126 12.4189 3.91226 10.9044 4.12164C9.38991 4.33102 7.96712 4.97001 6.80451 5.96294C5.6419 6.95587 4.78816 8.26117 4.3444 9.72426C3.90063 11.1874 3.88541 12.747 4.30054 14.2185C4.71568 15.6899 5.54378 17.0116 6.68679 18.0271C7.82981 19.0425 9.23986 19.7091 10.75 19.948V14.36H8.719V12.048H10.75V10.285C10.7063 9.87346 10.7536 9.45732 10.8886 9.0661C11.0237 8.67488 11.2431 8.31815 11.5314 8.02119C11.8196 7.72423 12.1697 7.49432 12.5567 7.34774C12.9438 7.20116 13.3583 7.14151 13.771 7.17301C14.371 7.18089 14.9696 7.23303 15.562 7.32901V9.30001H14.554C14.3823 9.27756 14.2077 9.294 14.0432 9.34813C13.8787 9.40225 13.7285 9.49267 13.6037 9.6127C13.4789 9.73272 13.3826 9.87928 13.3221 10.0415C13.2616 10.2038 13.2383 10.3776 13.254 10.55V12.05H15.473L15.118 14.362H13.25V19.953C15.1322 19.6553 16.8464 18.6954 18.0838 17.2462C19.3213 15.797 20.0008 13.9537 20 12.048V12.048Z" fill="#271302"/>
</svg>
