<svg width="40" height="40" viewBox="0 0 40 40" fill="none" xmlns="http://www.w3.org/2000/svg">
<path d="M6.2 8.26663C5.70557 7.60739 6.17595 6.66663 7 6.66663H33C33.824 6.66663 34.2944 7.60739 33.8 8.26663L20.8 25.6C20.4 26.1333 19.6 26.1333 19.2 25.6L6.2 8.26663Z" fill="#E6FBF1" stroke="#5FEAB0" stroke-width="2" stroke-miterlimit="10" stroke-linecap="square"/>
<path d="M35 34.3333C35.5523 34.3333 36 33.8855 36 33.3333C36 32.781 35.5523 32.3333 35 32.3333V34.3333ZM5 32.3333C4.44772 32.3333 4 32.781 4 33.3333C4 33.8855 4.44772 34.3333 5 34.3333V32.3333ZM35 32.3333H5V34.3333H35V32.3333Z" fill="#5FEAB0"/>
</svg>
