<svg width="57" height="36" viewBox="0 0 57 36" fill="none" xmlns="http://www.w3.org/2000/svg">
<path d="M12.186 16V3.238H9.324V8.242H4.23V3.238H1.386V16H4.23V10.924H9.324V16H12.186ZM26.0447 5.956V3.238H15.3347V5.956H19.2587V16H22.1027V5.956H26.0447ZM43.6634 16V3.238H39.7574L36.4274 11.86L32.9174 3.238H29.2094V16H31.9094V7.648L35.2394 16H37.5434L40.8734 7.54V16H43.6634ZM56.2279 16V13.282H50.7199V3.238H47.8759V16H56.2279Z" fill="white"/>
<path d="M11.052 23.956V21.238H0.342V23.956H4.266V34H7.11V23.956H11.052ZM23.0289 34H26.1249L21.3729 21.238H18.0789L13.2729 34H16.2609L17.1789 31.408H22.1109L23.0289 34ZM19.6809 24.406L21.2109 28.816H18.1149L19.6809 24.406ZM41.6645 34V27.178H35.1665V29.59H39.0005C38.8385 30.31 37.9565 31.678 35.8505 31.678C33.7805 31.678 32.0165 30.292 32.0165 27.628C32.0165 24.784 34.0505 23.632 35.7785 23.632C37.9025 23.632 38.7485 25.072 38.9465 25.864L41.6825 24.91C41.1245 23.128 39.4325 20.968 35.7785 20.968C32.1785 20.968 29.1365 23.614 29.1365 27.628C29.1365 31.66 32.0525 34.27 35.5985 34.27C37.4165 34.27 38.6225 33.514 39.1805 32.704L39.3605 34H41.6645ZM55.7241 24.37C55.4541 22.876 54.2481 20.968 51.0621 20.968C48.6141 20.968 46.4901 22.66 46.4901 25.072C46.4901 26.962 47.8041 28.402 49.9641 28.816L51.7101 29.14C52.5561 29.302 53.0781 29.77 53.0781 30.418C53.0781 31.21 52.3941 31.75 51.2781 31.75C49.5321 31.75 48.7401 30.724 48.6321 29.554L46.0221 30.184C46.2021 31.984 47.7141 34.27 51.2421 34.27C54.2841 34.27 55.9581 32.236 55.9581 30.238C55.9581 28.42 54.6981 26.854 52.2681 26.404L50.5581 26.08C49.6761 25.918 49.2981 25.468 49.2981 24.856C49.2981 24.154 49.9821 23.488 51.0441 23.488C52.5921 23.488 53.0781 24.496 53.1681 25.09L55.7241 24.37Z" fill="white"/>
</svg>
