<svg width="16" height="16" viewBox="0 0 16 16" fill="none" xmlns="http://www.w3.org/2000/svg">
<path d="M5.68225 5.30015C5.78366 5.32259 5.88721 5.33395 5.99107 5.33403C6.28257 5.33407 6.56655 5.24148 6.80201 5.06964C6.98081 4.93583 7.12945 4.76589 7.23826 4.57086C7.34706 4.37584 7.4136 4.16009 7.43354 3.93766C7.48606 3.51892 7.38491 3.09534 7.14886 2.7455C6.91281 2.39567 6.55788 2.14333 6.14993 2.03529C5.95769 1.9913 5.75826 1.98906 5.56509 2.02873C5.37192 2.0684 5.1895 2.14905 5.03016 2.26524C4.85136 2.39904 4.70272 2.56898 4.59392 2.76401C4.48511 2.95904 4.41857 3.17478 4.39863 3.39722C4.34597 3.81605 4.44706 4.23976 4.68312 4.58971C4.91918 4.93967 5.27418 5.19209 5.68225 5.30015V5.30015Z" fill="#20DF93"/>
<path d="M4.17175 7.40398C4.28406 7.20092 4.35477 6.97752 4.37976 6.74682C4.40474 6.51613 4.3835 6.28277 4.31728 6.06037C4.21948 5.64961 3.96785 5.292 3.61422 5.06125C3.2606 4.83049 2.83194 4.74418 2.41657 4.82008C2.23485 4.86712 2.06451 4.95041 1.9158 5.06495C1.76709 5.17949 1.64307 5.32292 1.5512 5.48661C1.43904 5.68952 1.36841 5.91273 1.34342 6.14322C1.31844 6.37371 1.3396 6.60687 1.40567 6.8291C1.49533 7.18261 1.69614 7.49798 1.97852 7.72877C2.26091 7.95956 2.60995 8.09356 2.97423 8.11105C3.08659 8.1112 3.19853 8.0974 3.30749 8.06995C3.48896 8.02284 3.65905 7.93957 3.80756 7.82514C3.95607 7.7107 4.07995 7.56745 4.17175 7.40398V7.40398Z" fill="#20DF93"/>
<path d="M9.19594 5.07012C9.43147 5.24176 9.71544 5.33415 10.0069 5.33395C10.1108 5.33369 10.2143 5.32214 10.3157 5.29951C10.7238 5.19146 11.0788 4.93903 11.3148 4.58908C11.5509 4.23913 11.652 3.81541 11.5993 3.39658C11.5794 3.17415 11.5128 2.9584 11.404 2.76338C11.2952 2.56835 11.1466 2.39841 10.9678 2.2646C10.8084 2.14848 10.626 2.06787 10.4328 2.0282C10.2397 1.98854 10.0403 1.99074 9.84802 2.03465C9.43996 2.1427 9.08495 2.39513 8.84889 2.74508C8.61283 3.09504 8.51175 3.51875 8.5644 3.93758C8.58427 4.16011 8.65077 4.37596 8.75958 4.57109C8.86839 4.76622 9.01707 4.93625 9.19594 5.07012Z" fill="#20DF93"/>
<path d="M14.4476 5.48548C14.3557 5.32179 14.2317 5.17836 14.083 5.06382C13.9343 4.94928 13.764 4.86599 13.5822 4.81895C13.1668 4.7422 12.7377 4.82817 12.3839 5.05906C12.0301 5.28994 11.7786 5.64805 11.6815 6.05924C11.6153 6.28164 11.5941 6.515 11.619 6.74569C11.644 6.97639 11.7147 7.19979 11.827 7.40285C11.9189 7.56654 12.0429 7.70996 12.1916 7.8245C12.3404 7.93904 12.5107 8.02234 12.6924 8.06937C12.8014 8.09683 12.9133 8.11064 13.0257 8.11047C13.39 8.09305 13.739 7.95915 14.0215 7.72847C14.304 7.49779 14.5049 7.18253 14.5948 6.82908C14.6608 6.60658 14.6817 6.37316 14.6565 6.14246C14.6312 5.91176 14.5602 5.68842 14.4476 5.48548V5.48548Z" fill="#20DF93"/>
<path d="M7.99965 6.44482C6.00619 6.44482 3.55615 9.5075 3.55615 11.9992C3.55615 12.5884 3.79023 13.1536 4.20689 13.5702C4.62355 13.9869 5.18866 14.2209 5.7779 14.2209C6.2526 14.2302 6.72137 14.1143 7.13706 13.8849C7.39816 13.7319 7.69719 13.6559 7.99965 13.6655C8.30211 13.6559 8.60114 13.7319 8.86224 13.8849C9.27793 14.1143 9.7467 14.2302 10.2214 14.2209C10.8106 14.2209 11.3758 13.9869 11.7924 13.5702C12.2091 13.1536 12.4431 12.5884 12.4431 11.9992C12.4431 9.5075 9.99311 6.44482 7.99965 6.44482Z" fill="#20DF93"/>
</svg>
