<svg width="121" height="24" viewBox="0 0 121 24" fill="none" xmlns="http://www.w3.org/2000/svg">
<path d="M12 21.35L10.55 20.03C5.4 15.36 2 12.28 2 8.5C2 5.42 4.42 3 7.5 3C9.24 3 10.91 3.81 12 5.09C13.09 3.81 14.76 3 16.5 3C19.58 3 22 5.42 22 8.5C22 12.28 18.6 15.36 13.45 20.04L12 21.35Z" fill="url(#paint0_linear_1268_2735)"/>
<path d="M33.424 5.096L36.384 5.112C37.9307 5.112 39.2907 5.672 40.464 6.792C41.6373 7.90133 42.224 9.272 42.224 10.904C42.224 12.5253 41.648 13.9173 40.496 15.08C39.3547 16.2427 37.968 16.824 36.336 16.824H33.408C32.7573 16.824 32.352 16.6907 32.192 16.424C32.064 16.2 32 15.8587 32 15.4V6.504C32 6.248 32.0053 6.06133 32.016 5.944C32.0373 5.82667 32.0907 5.688 32.176 5.528C32.3253 5.24 32.7413 5.096 33.424 5.096ZM36.384 13.992C37.152 13.992 37.8453 13.7093 38.464 13.144C39.0827 12.568 39.392 11.848 39.392 10.984C39.392 10.12 39.088 9.4 38.48 8.824C37.8827 8.23733 37.1787 7.944 36.368 7.944H34.832V13.992H36.384Z" fill="url(#paint1_linear_1268_2735)"/>
<path d="M43.0256 12.632C43.0256 11.352 43.4736 10.296 44.3696 9.464C45.2656 8.632 46.2896 8.216 47.4416 8.216C48.5936 8.216 49.6123 8.632 50.4976 9.464C51.383 10.2853 51.8256 11.336 51.8256 12.616C51.8256 13.5013 51.5963 14.2907 51.1376 14.984C50.679 15.6667 50.119 16.1733 49.4576 16.504C48.807 16.824 48.1296 16.984 47.4256 16.984C46.7216 16.984 46.039 16.8133 45.3776 16.472C44.7163 16.12 44.1563 15.608 43.6976 14.936C43.2496 14.2533 43.0256 13.4853 43.0256 12.632ZM46.3696 13.784C46.711 14.04 47.0576 14.168 47.4096 14.168C47.7616 14.168 48.1136 14.0347 48.4656 13.768C48.8176 13.5013 48.9936 13.1067 48.9936 12.584C48.9936 12.0613 48.8283 11.672 48.4976 11.416C48.167 11.16 47.8096 11.032 47.4256 11.032C47.0416 11.032 46.6843 11.1653 46.3536 11.432C46.023 11.6987 45.8576 12.0933 45.8576 12.616C45.8576 13.128 46.0283 13.5173 46.3696 13.784Z" fill="url(#paint2_linear_1268_2735)"/>
<path d="M58.2034 15.784C57.798 16.3173 57.1527 16.584 56.2674 16.584C55.382 16.584 54.55 16.1787 53.7714 15.368C53.0034 14.5467 52.6194 13.592 52.6194 12.504C52.6194 11.416 53.0087 10.4613 53.7874 9.64C54.566 8.81867 55.4194 8.408 56.3474 8.408C56.71 8.408 57.0407 8.47733 57.3394 8.616C57.638 8.744 57.8407 8.86667 57.9474 8.984C58.0647 9.09067 58.1554 9.192 58.2194 9.288C58.2514 8.98933 58.358 8.76533 58.5394 8.616C58.7314 8.456 59.0354 8.376 59.4514 8.376C59.8674 8.376 60.1714 8.408 60.3634 8.472C60.5554 8.536 60.6887 8.648 60.7634 8.808C60.8487 8.95733 60.8967 9.09067 60.9074 9.208C60.9287 9.32533 60.9394 9.50667 60.9394 9.752V16.376C60.9394 17.6027 60.5127 18.5893 59.6594 19.336C58.806 20.0933 57.846 20.472 56.7794 20.472C55.9687 20.472 55.1954 20.2747 54.4594 19.88C53.7234 19.4853 53.3554 19.128 53.3554 18.808C53.3554 18.392 53.5154 18.024 53.8354 17.704C54.038 17.48 54.1927 17.3253 54.2994 17.24C54.4167 17.1547 54.55 17.112 54.6994 17.112C54.8487 17.112 55.0034 17.176 55.1634 17.304C55.6754 17.6987 56.23 17.896 56.8274 17.896C57.2327 17.896 57.5634 17.736 57.8194 17.416C58.0754 17.096 58.2034 16.712 58.2034 16.264V15.784ZM55.3554 12.52C55.3554 12.8613 55.4887 13.1707 55.7554 13.448C56.0327 13.7253 56.3634 13.864 56.7474 13.864C57.142 13.864 57.4674 13.7253 57.7234 13.448C57.9794 13.16 58.1074 12.8507 58.1074 12.52C58.1074 12.1787 57.9847 11.864 57.7394 11.576C57.494 11.2773 57.1634 11.128 56.7474 11.128C56.3314 11.128 55.9954 11.272 55.7394 11.56C55.4834 11.848 55.3554 12.168 55.3554 12.52Z" fill="url(#paint3_linear_1268_2735)"/>
<path d="M67.5628 15.784C67.1574 16.3173 66.5121 16.584 65.6268 16.584C64.7414 16.584 63.9094 16.1787 63.1308 15.368C62.3628 14.5467 61.9788 13.592 61.9788 12.504C61.9788 11.416 62.3681 10.4613 63.1468 9.64C63.9254 8.81867 64.7787 8.408 65.7067 8.408C66.0694 8.408 66.4001 8.47733 66.6987 8.616C66.9974 8.744 67.2001 8.86667 67.3068 8.984C67.4241 9.09067 67.5148 9.192 67.5788 9.288C67.6108 8.98933 67.7174 8.76533 67.8988 8.616C68.0908 8.456 68.3948 8.376 68.8108 8.376C69.2268 8.376 69.5308 8.408 69.7228 8.472C69.9148 8.536 70.0481 8.648 70.1227 8.808C70.2081 8.95733 70.2561 9.09067 70.2668 9.208C70.2881 9.32533 70.2988 9.50667 70.2988 9.752V16.376C70.2988 17.6027 69.8721 18.5893 69.0188 19.336C68.1654 20.0933 67.2054 20.472 66.1388 20.472C65.3281 20.472 64.5548 20.2747 63.8188 19.88C63.0828 19.4853 62.7148 19.128 62.7148 18.808C62.7148 18.392 62.8748 18.024 63.1947 17.704C63.3974 17.48 63.5521 17.3253 63.6588 17.24C63.7761 17.1547 63.9094 17.112 64.0588 17.112C64.2081 17.112 64.3628 17.176 64.5228 17.304C65.0348 17.6987 65.5894 17.896 66.1868 17.896C66.5921 17.896 66.9227 17.736 67.1787 17.416C67.4347 17.096 67.5628 16.712 67.5628 16.264V15.784ZM64.7148 12.52C64.7148 12.8613 64.8481 13.1707 65.1147 13.448C65.3921 13.7253 65.7228 13.864 66.1068 13.864C66.5014 13.864 66.8268 13.7253 67.0828 13.448C67.3388 13.16 67.4668 12.8507 67.4668 12.52C67.4668 12.1787 67.3441 11.864 67.0988 11.576C66.8534 11.2773 66.5228 11.128 66.1068 11.128C65.6908 11.128 65.3548 11.272 65.0988 11.56C64.8428 11.848 64.7148 12.168 64.7148 12.52Z" fill="url(#paint4_linear_1268_2735)"/>
<path d="M71.3381 12.632C71.3381 11.352 71.7861 10.296 72.6821 9.464C73.5781 8.632 74.6021 8.216 75.7541 8.216C76.9061 8.216 77.9248 8.632 78.8101 9.464C79.6955 10.2853 80.1381 11.336 80.1381 12.616C80.1381 13.5013 79.9088 14.2907 79.4501 14.984C78.9915 15.6667 78.4315 16.1733 77.7701 16.504C77.1195 16.824 76.4421 16.984 75.7381 16.984C75.0341 16.984 74.3515 16.8133 73.6901 16.472C73.0288 16.12 72.4688 15.608 72.0101 14.936C71.5621 14.2533 71.3381 13.4853 71.3381 12.632ZM74.6821 13.784C75.0235 14.04 75.3701 14.168 75.7221 14.168C76.0741 14.168 76.4261 14.0347 76.7781 13.768C77.1301 13.5013 77.3061 13.1067 77.3061 12.584C77.3061 12.0613 77.1408 11.672 76.8101 11.416C76.4795 11.16 76.1221 11.032 75.7381 11.032C75.3541 11.032 74.9968 11.1653 74.6661 11.432C74.3355 11.6987 74.1701 12.0933 74.1701 12.616C74.1701 13.128 74.3408 13.5173 74.6821 13.784Z" fill="url(#paint5_linear_1268_2735)"/>
<path d="M92.5468 13.768L92.8348 13.56C93.1974 13.3467 93.4534 13.24 93.6028 13.24C93.9334 13.24 94.2908 13.5387 94.6748 14.136C94.9094 14.5093 95.0268 14.808 95.0268 15.032C95.0268 15.256 94.9521 15.4427 94.8027 15.592C94.6641 15.7413 94.4988 15.8747 94.3068 15.992C94.1147 16.1093 93.9281 16.2213 93.7467 16.328C93.5761 16.4347 93.2188 16.5733 92.6748 16.744C92.1308 16.9147 91.6028 17 91.0908 17C90.5894 17 90.0774 16.936 89.5548 16.808C89.0428 16.6693 88.5094 16.4453 87.9548 16.136C87.4108 15.816 86.9201 15.432 86.4827 14.984C86.0454 14.5253 85.6828 13.944 85.3948 13.24C85.1174 12.5253 84.9788 11.752 84.9788 10.92C84.9788 10.088 85.1174 9.336 85.3948 8.664C85.6721 7.98133 86.0241 7.42133 86.4508 6.984C86.8881 6.536 87.3841 6.16267 87.9388 5.864C88.9841 5.288 90.0348 5 91.0908 5C91.5921 5 92.0988 5.08 92.6108 5.24C93.1334 5.38933 93.5281 5.544 93.7948 5.704L94.1787 5.928C94.3708 6.04533 94.5201 6.14133 94.6268 6.216C94.9041 6.44 95.0428 6.696 95.0428 6.984C95.0428 7.26133 94.9307 7.55467 94.7067 7.864C94.2907 8.44 93.9174 8.728 93.5868 8.728C93.3947 8.728 93.1228 8.61067 92.7708 8.376C92.3228 8.01333 91.7254 7.832 90.9788 7.832C90.2854 7.832 89.6028 8.072 88.9308 8.552C88.6108 8.78667 88.3441 9.11733 88.1308 9.544C87.9174 9.97067 87.8107 10.456 87.8107 11C87.8107 11.5333 87.9174 12.0133 88.1308 12.44C88.3441 12.8667 88.6161 13.2027 88.9468 13.448C89.5974 13.9173 90.2748 14.152 90.9788 14.152C91.3094 14.152 91.6188 14.1093 91.9067 14.024C92.2054 13.9387 92.4188 13.8533 92.5468 13.768Z" fill="url(#paint6_linear_1268_2735)"/>
<path d="M101.238 9.304C101.302 8.70667 101.723 8.408 102.502 8.408C102.918 8.408 103.227 8.44 103.43 8.504C103.632 8.568 103.771 8.68 103.846 8.84C103.931 9 103.979 9.144 103.99 9.272C104.011 9.38933 104.022 9.57067 104.022 9.816V15.416C104.022 15.6613 104.011 15.848 103.99 15.976C103.979 16.0933 103.936 16.232 103.862 16.392C103.712 16.6693 103.344 16.808 102.758 16.808C102.182 16.808 101.792 16.7387 101.59 16.6C101.398 16.4507 101.286 16.2373 101.254 15.96C100.859 16.5253 100.198 16.808 99.2696 16.808C98.3523 16.808 97.499 16.3867 96.7096 15.544C95.9203 14.7013 95.5256 13.7253 95.5256 12.616C95.5256 11.496 95.9203 10.52 96.7096 9.688C97.5096 8.84533 98.3843 8.424 99.3336 8.424C99.6963 8.424 100.027 8.488 100.326 8.616C100.624 8.744 100.832 8.86667 100.95 8.984C101.067 9.09067 101.163 9.19733 101.238 9.304ZM98.3256 12.632C98.3256 12.984 98.4643 13.304 98.7416 13.592C99.019 13.8693 99.355 14.008 99.7496 14.008C100.144 14.008 100.47 13.864 100.726 13.576C100.992 13.288 101.126 12.9733 101.126 12.632C101.126 12.28 100.998 11.9547 100.742 11.656C100.496 11.3573 100.16 11.208 99.7336 11.208C99.3176 11.208 98.9763 11.3573 98.7096 11.656C98.4536 11.9547 98.3256 12.28 98.3256 12.632Z" fill="url(#paint7_linear_1268_2735)"/>
<path d="M111.025 8.504C111.228 8.568 111.393 8.68 111.521 8.84C111.66 8.98933 111.729 9.23467 111.729 9.576C111.729 9.91733 111.628 10.2907 111.425 10.696C111.222 11.1013 110.929 11.304 110.545 11.304C110.353 11.304 110.166 11.2613 109.985 11.176C109.814 11.0907 109.585 11.048 109.297 11.048C109.009 11.048 108.737 11.1493 108.481 11.352C108.236 11.5547 108.113 11.8 108.113 12.088V15.448C108.113 15.6933 108.102 15.88 108.081 16.008C108.07 16.1253 108.022 16.264 107.937 16.424C107.777 16.7013 107.361 16.84 106.689 16.84C106.177 16.84 105.809 16.7493 105.585 16.568C105.414 16.4187 105.318 16.1893 105.297 15.88C105.297 15.7733 105.297 15.6187 105.297 15.416V9.8C105.297 9.55467 105.302 9.37333 105.313 9.256C105.334 9.128 105.382 8.98933 105.457 8.84C105.606 8.552 106.022 8.408 106.705 8.408C107.345 8.408 107.745 8.53067 107.905 8.776C108.022 8.94667 108.081 9.12267 108.081 9.304C108.134 9.22933 108.209 9.13867 108.305 9.032C108.412 8.92533 108.63 8.78133 108.961 8.6C109.292 8.41867 109.58 8.328 109.825 8.328C110.081 8.328 110.294 8.344 110.465 8.376C110.636 8.39733 110.822 8.44 111.025 8.504Z" fill="url(#paint8_linear_1268_2735)"/>
<path d="M120.253 11.624C120.253 12.2747 120.088 12.76 119.757 13.08C119.437 13.3893 119.08 13.544 118.685 13.544H114.893C114.893 13.8427 115.069 14.0933 115.421 14.296C115.773 14.4987 116.125 14.6 116.477 14.6C117.096 14.6 117.581 14.536 117.933 14.408L118.109 14.344C118.365 14.2267 118.578 14.168 118.749 14.168C119.09 14.168 119.384 14.408 119.629 14.888C119.768 15.176 119.837 15.4213 119.837 15.624C119.837 16.5733 118.701 17.048 116.429 17.048C115.64 17.048 114.936 16.9147 114.317 16.648C113.709 16.3707 113.234 16.008 112.893 15.56C112.221 14.696 111.885 13.7307 111.885 12.664C111.885 11.32 112.317 10.248 113.181 9.448C114.056 8.63733 115.144 8.232 116.445 8.232C117.928 8.232 119.016 8.75467 119.709 9.8C120.072 10.3547 120.253 10.9627 120.253 11.624ZM116.877 12.088C117.282 12.088 117.485 11.9173 117.485 11.576C117.485 11.3307 117.389 11.1333 117.197 10.984C117.016 10.8347 116.749 10.76 116.397 10.76C116.056 10.76 115.714 10.904 115.373 11.192C115.032 11.4693 114.861 11.768 114.861 12.088H116.877Z" fill="url(#paint9_linear_1268_2735)"/>
<defs>
<linearGradient id="paint0_linear_1268_2735" x1="12" y1="3" x2="12" y2="21.35" gradientUnits="userSpaceOnUse">
<stop stop-color="#DD7BFF"/>
<stop offset="1" stop-color="#FF6C6C"/>
</linearGradient>
<linearGradient id="paint1_linear_1268_2735" x1="76.1265" y1="5" x2="76.1265" y2="20.472" gradientUnits="userSpaceOnUse">
<stop stop-color="#DD7BFF"/>
<stop offset="1" stop-color="#FF6C6C"/>
</linearGradient>
<linearGradient id="paint2_linear_1268_2735" x1="76.1265" y1="5" x2="76.1265" y2="20.472" gradientUnits="userSpaceOnUse">
<stop stop-color="#DD7BFF"/>
<stop offset="1" stop-color="#FF6C6C"/>
</linearGradient>
<linearGradient id="paint3_linear_1268_2735" x1="76.1265" y1="5" x2="76.1265" y2="20.472" gradientUnits="userSpaceOnUse">
<stop stop-color="#DD7BFF"/>
<stop offset="1" stop-color="#FF6C6C"/>
</linearGradient>
<linearGradient id="paint4_linear_1268_2735" x1="76.1265" y1="5" x2="76.1265" y2="20.472" gradientUnits="userSpaceOnUse">
<stop stop-color="#DD7BFF"/>
<stop offset="1" stop-color="#FF6C6C"/>
</linearGradient>
<linearGradient id="paint5_linear_1268_2735" x1="76.1265" y1="5" x2="76.1265" y2="20.472" gradientUnits="userSpaceOnUse">
<stop stop-color="#DD7BFF"/>
<stop offset="1" stop-color="#FF6C6C"/>
</linearGradient>
<linearGradient id="paint6_linear_1268_2735" x1="76.1265" y1="5" x2="76.1265" y2="20.472" gradientUnits="userSpaceOnUse">
<stop stop-color="#DD7BFF"/>
<stop offset="1" stop-color="#FF6C6C"/>
</linearGradient>
<linearGradient id="paint7_linear_1268_2735" x1="76.1265" y1="5" x2="76.1265" y2="20.472" gradientUnits="userSpaceOnUse">
<stop stop-color="#DD7BFF"/>
<stop offset="1" stop-color="#FF6C6C"/>
</linearGradient>
<linearGradient id="paint8_linear_1268_2735" x1="76.1265" y1="5" x2="76.1265" y2="20.472" gradientUnits="userSpaceOnUse">
<stop stop-color="#DD7BFF"/>
<stop offset="1" stop-color="#FF6C6C"/>
</linearGradient>
<linearGradient id="paint9_linear_1268_2735" x1="76.1265" y1="5" x2="76.1265" y2="20.472" gradientUnits="userSpaceOnUse">
<stop stop-color="#DD7BFF"/>
<stop offset="1" stop-color="#FF6C6C"/>
</linearGradient>
</defs>
</svg>
