<svg width="16" height="16" viewBox="0 0 16 16" fill="none" xmlns="http://www.w3.org/2000/svg">
<path d="M5.68225 5.30008C5.78366 5.32253 5.88721 5.33389 5.99107 5.33397C6.28257 5.33401 6.56655 5.24142 6.80201 5.06958C6.98081 4.93577 7.12945 4.76583 7.23826 4.5708C7.34706 4.37578 7.4136 4.16003 7.43354 3.9376C7.48606 3.51885 7.38491 3.09528 7.14886 2.74544C6.91281 2.39561 6.55788 2.14327 6.14993 2.03522C5.95769 1.99124 5.75826 1.989 5.56509 2.02867C5.37192 2.06834 5.1895 2.14899 5.03016 2.26518C4.85136 2.39898 4.70272 2.56892 4.59392 2.76395C4.48511 2.95898 4.41857 3.17472 4.39863 3.39716C4.34597 3.81599 4.44706 4.2397 4.68312 4.58965C4.91918 4.93961 5.27418 5.19203 5.68225 5.30008Z" fill="#A1B8CE"/>
<path d="M4.17187 7.40398C4.28418 7.20092 4.35489 6.97752 4.37988 6.74682C4.40487 6.51613 4.38363 6.28277 4.3174 6.06037C4.2196 5.64961 3.96797 5.292 3.61435 5.06125C3.26073 4.83049 2.83206 4.74418 2.41669 4.82008C2.23497 4.86712 2.06464 4.95041 1.91592 5.06495C1.76721 5.17949 1.64319 5.32292 1.55132 5.48661C1.43916 5.68952 1.36853 5.91273 1.34354 6.14322C1.31856 6.37371 1.33972 6.60687 1.4058 6.8291C1.49545 7.18261 1.69626 7.49798 1.97865 7.72877C2.26103 7.95956 2.61007 8.09356 2.97435 8.11105C3.08671 8.1112 3.19866 8.0974 3.30761 8.06995C3.48908 8.02284 3.65918 7.93957 3.80769 7.82514C3.9562 7.7107 4.08007 7.56745 4.17187 7.40398Z" fill="#A1B8CE"/>
<path d="M9.19594 5.07012C9.43147 5.24176 9.71544 5.33415 10.0069 5.33395C10.1108 5.33369 10.2143 5.32214 10.3157 5.29951C10.7238 5.19146 11.0788 4.93903 11.3148 4.58908C11.5509 4.23913 11.652 3.81542 11.5993 3.39658C11.5794 3.17415 11.5128 2.9584 11.404 2.76338C11.2952 2.56835 11.1466 2.39841 10.9678 2.2646C10.8084 2.14848 10.626 2.06787 10.4328 2.0282C10.2397 1.98854 10.0403 1.99074 9.84802 2.03465C9.43996 2.1427 9.08495 2.39513 8.84889 2.74508C8.61283 3.09504 8.51175 3.51875 8.5644 3.93758C8.58427 4.16011 8.65077 4.37596 8.75958 4.57109C8.86839 4.76622 9.01707 4.93625 9.19594 5.07012Z" fill="#A1B8CE"/>
<path d="M14.4477 5.48542C14.3559 5.32173 14.2318 5.1783 14.0831 5.06376C13.9344 4.94922 13.7641 4.86593 13.5824 4.81889C13.1669 4.74214 12.7378 4.82811 12.384 5.059C12.0302 5.28988 11.7787 5.64799 11.6816 6.05918C11.6154 6.28158 11.5942 6.51494 11.6192 6.74563C11.6441 6.97633 11.7149 7.19973 11.8272 7.40279C11.919 7.56648 12.0431 7.7099 12.1918 7.82444C12.3405 7.93898 12.5108 8.02227 12.6925 8.06931C12.8015 8.09677 12.9134 8.11058 13.0258 8.11041C13.3901 8.09299 13.7391 7.95909 14.0216 7.72841C14.3041 7.49773 14.505 7.18247 14.5949 6.82902C14.6609 6.60652 14.6819 6.3731 14.6566 6.1424C14.6313 5.9117 14.5603 5.68836 14.4477 5.48542Z" fill="#A1B8CE"/>
<path d="M7.99965 6.44482C6.00619 6.44482 3.55615 9.5075 3.55615 11.9992C3.55615 12.5884 3.79023 13.1536 4.20689 13.5702C4.62355 13.9869 5.18866 14.2209 5.7779 14.2209C6.2526 14.2302 6.72137 14.1143 7.13706 13.8849C7.39816 13.7319 7.69719 13.6559 7.99965 13.6655C8.30211 13.6559 8.60114 13.7319 8.86224 13.8849C9.27793 14.1143 9.7467 14.2302 10.2214 14.2209C10.8106 14.2209 11.3758 13.9869 11.7924 13.5702C12.2091 13.1536 12.4431 12.5884 12.4431 11.9992C12.4431 9.5075 9.99311 6.44482 7.99965 6.44482Z" fill="#A1B8CE"/>
</svg>
