<svg width="104" height="24" viewBox="0 0 104 24" fill="none" xmlns="http://www.w3.org/2000/svg">
<path d="M5.33 7.088C6.366 7.088 7.27133 7.298 8.046 7.718C8.83 8.138 9.432 8.72133 9.852 9.468C10.272 10.2147 10.482 11.064 10.482 12.016C10.482 12.9587 10.272 13.808 9.852 14.564C9.432 15.32 8.83 15.9173 8.046 16.356C7.27133 16.7853 6.366 17 5.33 17H1.2V7.088H5.33ZM5.05 14.228C5.75 14.228 6.30533 14.0367 6.716 13.654C7.12667 13.2713 7.332 12.7253 7.332 12.016C7.332 11.3067 7.12667 10.7607 6.716 10.378C6.30533 9.99533 5.75 9.804 5.05 9.804H4.308V14.228H5.05Z" fill="#271302"/>
<g clip-path="url(#clip0_1185_2656)">
<path d="M27.5 0C20.883 0 15.5 5.383 15.5 12C15.5 18.617 20.883 24 27.5 24C34.117 24 39.5 18.617 39.5 12C39.5 5.383 34.117 0 27.5 0ZM35.5 10C36.052 10 36.5 10.448 36.5 11C36.5 11.552 36.052 12 35.5 12C34.948 12 34.5 11.552 34.5 11C34.5 10.448 34.948 10 35.5 10ZM33.5 4C34.052 4 34.5 4.448 34.5 5C34.5 5.552 34.052 6 33.5 6C32.948 6 32.5 5.552 32.5 5C32.5 4.448 32.948 4 33.5 4ZM27.5 5C28.052 5 28.5 5.448 28.5 6C28.5 6.552 28.052 7 27.5 7C26.948 7 26.5 6.552 26.5 6C26.5 5.448 26.948 5 27.5 5ZM27.5 9C29.154 9 30.5 10.346 30.5 12C30.5 13.654 29.154 15 27.5 15C25.846 15 24.5 13.654 24.5 12C24.5 10.346 25.846 9 27.5 9ZM22.5 4C23.052 4 23.5 4.448 23.5 5C23.5 5.552 23.052 6 22.5 6C21.948 6 21.5 5.552 21.5 5C21.5 4.448 21.948 4 22.5 4ZM19.5 8C20.052 8 20.5 8.448 20.5 9C20.5 9.552 20.052 10 19.5 10C18.948 10 18.5 9.552 18.5 9C18.5 8.448 18.948 8 19.5 8ZM27.5 22C22.66 22 18.614 18.543 17.697 13.969C18.408 14.259 19.168 14.406 19.934 14.406C20.916 14.406 21.899 14.144 22.808 13.668C23.498 15.603 25.331 17 27.5 17C29.436 17 31.1 15.882 31.93 14.268C32.893 15.327 34.24 16.285 36.292 16.761C34.597 19.879 31.292 22 27.5 22Z" fill="#271302"/>
</g>
<path d="M53.37 7.088V17H50.262V13.136H47.308V17H44.2V7.088H47.308V10.658H50.262V7.088H53.37ZM56.7004 7.088H59.7804L58.1284 11.218H56.0844L56.7004 7.088ZM71.8054 17H68.6974L65.4074 12.016V17H62.2994V7.088H65.4074L68.6974 12.156V7.088H71.8054V17ZM77.3675 7.088V12.674C77.3675 13.1313 77.4655 13.4953 77.6615 13.766C77.8669 14.0273 78.1935 14.158 78.6415 14.158C79.0895 14.158 79.4209 14.0273 79.6355 13.766C79.8502 13.4953 79.9575 13.1313 79.9575 12.674V7.088H83.0515V12.674C83.0515 13.6167 82.8555 14.424 82.4635 15.096C82.0715 15.7587 81.5349 16.258 80.8535 16.594C80.1722 16.93 79.4115 17.098 78.5715 17.098C77.7315 17.098 76.9849 16.93 76.3315 16.594C75.6875 16.258 75.1835 15.7587 74.8195 15.096C74.4555 14.4333 74.2735 13.626 74.2735 12.674V7.088H77.3675ZM93.296 7.088V9.552H90.664V17H87.556V9.552H84.952V7.088H93.296ZM99.137 17.098C97.9516 17.098 96.9716 16.8227 96.197 16.272C95.4316 15.712 95.0163 14.8953 94.951 13.822H98.255C98.3016 14.3913 98.5536 14.676 99.011 14.676C99.179 14.676 99.319 14.6387 99.431 14.564C99.5523 14.48 99.613 14.354 99.613 14.186C99.613 13.9527 99.487 13.766 99.235 13.626C98.983 13.4767 98.591 13.3087 98.059 13.122C97.4243 12.898 96.897 12.6787 96.477 12.464C96.0663 12.2493 95.7116 11.9367 95.413 11.526C95.1143 11.1153 94.9696 10.588 94.979 9.944C94.979 9.3 95.1423 8.754 95.469 8.306C95.805 7.84867 96.2576 7.50333 96.827 7.27C97.4056 7.03667 98.0543 6.92 98.773 6.92C99.9863 6.92 100.948 7.2 101.657 7.76C102.376 8.32 102.754 9.10867 102.791 10.126H99.445C99.4356 9.846 99.3656 9.64533 99.235 9.524C99.1043 9.40267 98.9456 9.342 98.759 9.342C98.6283 9.342 98.521 9.38867 98.437 9.482C98.353 9.566 98.311 9.68733 98.311 9.846C98.311 10.07 98.4323 10.2567 98.675 10.406C98.927 10.546 99.3236 10.7187 99.865 10.924C100.49 11.1573 101.004 11.3813 101.405 11.596C101.816 11.8107 102.17 12.1093 102.469 12.492C102.768 12.8747 102.917 13.3553 102.917 13.934C102.917 14.5407 102.768 15.0867 102.469 15.572C102.17 16.048 101.736 16.4213 101.167 16.692C100.598 16.9627 99.921 17.098 99.137 17.098Z" fill="#271302"/>
<defs>
<clipPath id="clip0_1185_2656">
<rect width="24" height="24" fill="white" transform="translate(15.5)"/>
</clipPath>
</defs>
</svg>
